<svg xmlns="http://www.w3.org/2000/svg" viewBox="0 0 400 640" width="400" height="640">
  <ellipse cx="200" cy="590" rx="120" ry="18" fill="#000000" opacity="0.06"/>
  <path d="M200 40
           c 46 0 78 34 78 82
           c 0 34 -14 58 -34 74
           c 40 14 64 46 68 92
           l 10 210
           c 2 30 -18 46 -40 46
           l -164 0
           c -22 0 -42 -16 -40 -46
           l 10 -210
           c 4 -46 28 -78 68 -92
           c -20 -16 -34 -40 -34 -74
           c 0 -48 32 -82 78 -82 z" fill="#3E5563"/>
  <path d="M132 300 l -46 96 c -8 16 4 34 22 34 c 10 0 19 -6 24 -16 l 44 -92 z" fill="#3E5563"/>
  <path d="M268 300 l 46 96 c 8 16 -4 34 -22 34 c -10 0 -19 -6 -24 -16 l -44 -92 z" fill="#3E5563"/>
</svg>
